grf
version=1
nRows=6
nColumns=37
inDegrees=no
endheader
time	ground_force_1_vx	ground_force_1_vy	ground_force_1_vz	ground_force_1_px	ground_force_1_py	ground_force_1_pz	ground_moment_1_mx	ground_moment_1_my	ground_moment_1_mz	ground_force_2_vx	ground_force_2_vy	ground_force_2_vz	ground_force_2_px	ground_force_2_py	ground_force_2_pz	ground_moment_2_mx	ground_moment_2_my	ground_moment_2_mz	ground_force_3_vx	ground_force_3_vy	ground_force_3_vz	ground_force_3_px	ground_force_3_py	ground_force_3_pz	ground_moment_3_mx	ground_moment_3_my	ground_moment_3_mz	ground_force_4_vx	ground_force_4_vy	ground_force_4_vz	ground_force_4_px	ground_force_4_py	ground_force_4_pz	ground_moment_4_mx	ground_moment_4_my	ground_moment_4_mz
      0.00000000	      0.00000000	     -0.00000000	      0.00000000	      0.00000000	      0.00000000	      0.00000000	      0.00000000	      0.00000000	      0.00000000	      5.28924561	     -0.86550158	   -740.56256104	   -279.44278959	  -1023.56045403	      0.00000000	      0.00000000	      0.00000000	    180.14749923	     -6.46393060	     -5.39952698	    -26.23343277	   -154.65051062	   -899.96830295	      0.00000000	      0.00000000	      0.00000000	   -228.23945265	    -34.91479733	     16.10456772	     76.80151367	    601.15143065	   -562.60923375	      0.00000000	      0.00000000	     -0.00000000	   -135.14120015
      0.01000000	      0.00000000	     -0.00000000	      0.00000000	      0.00000000	      0.00000000	      0.00000000	      0.00000000	      0.00000000	      0.00000000	      5.17702007	     -0.60085398	   -741.81494141	   -279.08587798	  -1023.57001771	      0.00000000	      0.00000000	     -0.00000000	    114.56134708	     -6.38717702	     -5.81329671	    -26.08542061	   -145.38578979	   -901.19935533	      0.00000000	      0.00000000	     -0.00000000	   -136.32110633	    -34.64649058	     16.27317159	     75.36627197	    604.14395252	   -563.84492262	      0.00000000	      0.00000000	     -0.00000000	   -144.25987102
      0.02000000	      0.00000000	     -0.00000000	      0.00000000	      0.00000000	      0.00000000	      0.00000000	      0.00000000	      0.00000000	      0.00000000	      5.23745871	     -0.40839732	   -740.47070312	   -279.10366479	  -1022.15575239	      0.00000000	      0.00000000	      0.00000000	    134.20045116	     -6.41289615	     -5.43883506	    -27.22353935	   -155.54372562	   -866.10227694	      0.00000000	      0.00000000	     -0.00000000	   -476.10125915	    -34.65057995	     16.07828443	     76.34590912	    601.84438851	   -564.01680752	      0.00000000	      0.00000000	     -0.00000000	    -22.05573046
      0.03000000	      0.00000000	     -0.00000000	      0.00000000	      0.00000000	      0.00000000	      0.00000000	      0.00000000	      0.00000000	      0.00000000	      5.33773041	     -0.88018668	   -742.92852783	   -278.81891378	  -1022.82606117	      0.00000000	      0.00000000	      0.00000000	    156.34292769	     -6.49859618	     -5.31366864	    -26.37723541	   -145.83580622	   -900.16220803	      0.00000000	     -0.00000000	     -0.00000000	   -138.73828829	    -35.19423535	     16.05637667	     75.51490021	    606.48883981	   -561.85136112	      0.00000000	      0.00000000	     -0.00000000	   -199.44075485
      0.04000000	      0.00000000	     -0.00000000	      0.00000000	      0.00000000	      0.00000000	      0.00000000	      0.00000000	      0.00000000	      0.00000000	      4.65844822	     -0.10431832	   -742.79766846	   -278.20541517	  -1022.21979208	      0.00000000	      0.00000000	     -0.00000000	    -54.98938167	     -6.43889759	     -5.27713910	    -25.83721924	   -153.95303531	   -910.64056347	      0.00000000	      0.00000000	     -0.00000000	   -168.75436976	    -35.39927532	     16.17880368	     76.15661621	    603.69938985	   -562.87276504	      0.00000000	      0.00000000	     -0.00000000	    -29.41829500
      0.05000000	      0.00000000	     -0.00000000	      0.00000000	      0.00000000	      0.00000000	      0.00000000	      0.00000000	      0.00000000	      0.00000000	      4.30826664	      0.33038315	   -742.28070068	   -277.99019679	  -1022.40652650	      0.00000000	      0.00000000	      0.00000000	   -112.99033114	     -6.43901493	     -5.65258733	    -26.47662163	   -148.41002955	   -890.03927103	      0.00000000	     -0.00000000	     -0.00000000	   -252.37030173	    -34.82567834	     16.42744750	     75.41369629	    607.58563007	   -564.45996018	      0.00000000	      0.00000000	     -0.00000000	   -288.26795916
